<mxfile host="Electron" modified="2024-03-16T11:55:38.623Z" agent="Mozilla/5.0 (Windows NT 10.0; Win64; x64) AppleWebKit/537.36 (KHTML, like Gecko) draw.io/24.0.4 Chrome/120.0.6099.109 Electron/28.1.0 Safari/537.36" etag="rb3kS9GjIIiqPnQCa9hg" version="24.0.4" type="device">
  <diagram name="Page-1" id="U4e8Q_UapIbMX6bfHWWI">
    <mxGraphModel dx="1298" dy="942" grid="1" gridSize="10" guides="1" tooltips="1" connect="1" arrows="1" fold="1" page="1" pageScale="1" pageWidth="1100" pageHeight="850" math="0" shadow="0">
      <root>
        <mxCell id="0" />
        <mxCell id="1" parent="0" />
        <mxCell id="7XWcPO5MOVNVLiWFEyp1-13" value="&lt;font style=&quot;font-size: 24px;&quot;&gt;The internet&lt;/font&gt;" style="ellipse;shape=cloud;whiteSpace=wrap;html=1;labelPosition=center;verticalLabelPosition=top;align=center;verticalAlign=bottom;fontSize=13;" parent="1" vertex="1">
          <mxGeometry x="240" y="50" width="380" height="210" as="geometry" />
        </mxCell>
        <mxCell id="7XWcPO5MOVNVLiWFEyp1-2" value="&lt;font style=&quot;font-size: 24px;&quot;&gt;Your computer&lt;/font&gt;" style="rounded=0;whiteSpace=wrap;html=1;labelPosition=center;verticalLabelPosition=bottom;align=center;verticalAlign=top;" parent="1" vertex="1">
          <mxGeometry x="162.5" y="340" width="505" height="400" as="geometry" />
        </mxCell>
        <mxCell id="7XWcPO5MOVNVLiWFEyp1-3" value="&lt;font style=&quot;font-size: 24px;&quot;&gt;Concordance files&lt;/font&gt;" style="sketch=0;outlineConnect=0;fontColor=#232F3E;gradientColor=none;fillColor=#232F3D;strokeColor=none;dashed=0;verticalLabelPosition=bottom;verticalAlign=top;align=center;html=1;fontSize=24;fontStyle=0;aspect=fixed;pointerEvents=1;shape=mxgraph.aws4.folder;" parent="1" vertex="1">
          <mxGeometry x="236" y="610" width="78" height="71" as="geometry" />
        </mxCell>
        <mxCell id="7XWcPO5MOVNVLiWFEyp1-4" value="Git" style="shape=image;verticalLabelPosition=bottom;labelBackgroundColor=default;verticalAlign=top;aspect=fixed;imageAspect=0;image=https://git-scm.com/images/logos/downloads/Git-Icon-1788C.png;labelPosition=center;align=center;fontSize=24;" parent="1" vertex="1">
          <mxGeometry x="350" y="390" width="130" height="130" as="geometry" />
        </mxCell>
        <mxCell id="7XWcPO5MOVNVLiWFEyp1-7" value="Visual Studio Code" style="shape=image;verticalLabelPosition=bottom;labelBackgroundColor=default;verticalAlign=top;aspect=fixed;imageAspect=0;image=data:image/jpeg,/9j/4AAQSkZJRgABAQAAAQABAAD/2wCEAAkGBwgHBgkIBwgKCgkLDRYPDQwMDRsUFRAWIB0iIiAdHx8kKDQsJCYxJx8fLT0tMTU3Ojo6Iys/RD84QzQ5OjcBCgoKDQwNGg8PGjclHyU3Nzc3Nzc3Nzc3Nzc3Nzc3Nzc3Nzc3Nzc3Nzc3Nzc3Nzc3Nzc3Nzc3Nzc3Nzc3Nzc3N//AABEIAJQAlAMBEQACEQEDEQH/xAAbAAEAAgMBAQAAAAAAAAAAAAAABgcBBAUDAv/EAD0QAAEDAwEFAwgIBgMBAAAAAAEAAgMEBREGEiExUWETQbEiMlJxcoGh0RQjJDM1YpGyQnN0weHwQ1PxNP/EABoBAQACAwEAAAAAAAAAAAAAAAADBQEEBgL/xAAvEQACAgIBAwIFAwQDAQAAAAAAAgEDBBEhEiIxQVEFM3GhsTJh8EKBkeEUI9ET/9oADAMBAAIRAxEAPwC8UAQBAEAQBAEAQBAEAQGMoCHau1c2i2qK1uDqobny4yIug5nwW5j43V3N4NHJyujtTyQylvdwNW0y1k7y44yZDkKxVUjt1GitZnnu6p/yS+36oqoMMrAKhnpDc4fNQ24CNynBNT8QdeH5glFvutHcGj6NKC7G9h3OHuVbbQ9U90FpVkV2x2yboOVETGUAQBAEAQBAEAQBAEAQBAYJQED1frDBfQWiTfwlqWnhzDfmrDHxf6n/AMFdk5f9CEDJW+VxmA/aYvbHikeTM/pJDnetg1TLXFrg5pIcOBB3hJ54ETqdwdy26oq6XDKnFRHzducPf3rRuwa35Xifsb9PxCxOH5j7kptt5o7jgQSgP/637nf59yrLceyr9UcFpTk12/pnk6KhNgIAgCAIAgCAIAgCA+XvaxrnOIa0DJJ4BAVxq7V5rNuhtby2m4STDcZOg/L4+rjZY+L09z+Srycvq7E8ENW8aAygMwH7VF7Y8ViPJmZ4JEeJWwaoWQEABwcgkHmO5YmNmdkusupY2UIZcHkyscQHekO7P+9yqsjCmX3X4LfGzoivVk8kqVaWgQBAEAQBAEAQHnUTR08L5ppGxxsBc57jgALMRMzqDEzERuSrtXaskuznUlEXMoBxPAzev8vT9eStcfGiuOpvJUZOVNnavgi2Sts0xlAMrBk+qc/aYvbHikeRPiSRd62DWCAIAgMHiswC2nENGTuC5Y6wiF21zTUtU6GipzVBpw6Tb2Wk9Nxz61YVfD2ZdvOitt+IoraSNnXsGoaO8x/VEx1DRl8Dz5Q6jmFrX4z0zz4NnHykujjz7HZG9QGyEAQBAa9bWU9DTSVFXII4YxlzncFlVlp1B5d4SOpvBVGqtTz3ubsotqKhYcsjzvf1d8u5W+PjRVG55kpsjJm2deII/lbJrGEAQDKA+qf/AOqH2x4rERyJ8SSNbJrBAEAQHy7iswY2dTWGqZK2SW30LiylaS2R44ykcfU3xVbiYkJEWP5/BZ5mZLzNaePyRNWJWn3FLJBKyWGR0cjDlrmnBBWJWJjUmYmVncTon+mdZMqdikurmxz8GzcGydDyPwVRk4Mp3V8x7exc4ufDdlnE+/v/ALJnkKuLMIDTutypbVRvq62URxN7+JJ7gB3le0raxulTxZYta9TFR6l1HVX6q2pMx0rD9VADw6nmVcUULVH7lJfkNdP7HGypyAZQDKAZTQPajpaiuqWU1HC6WZ/msb/u4dV5dlSNyekWWnSlh2vRlPabXU1dds1FcIHkH+GI7J4cz1Vd/wAmbLVWPG4LKMWK6WZvOiNBXZRmcoYGUAygPkrJiTWvtpqLPXyQTMPZkkwv7nt+fNa9Fy2pEx5NjIpal5Vv7fuc7Km0QjKzoDjxTQJPprV09r2Kat256PgDnL4h05jp+i0cnCizuTifyb+NnNV2vyv4JxcNS2uhtQuD6hskL90QZvMjuQHP18FUrRYz9GuS3bIrVOvfBU19vtXfa36RVkNa37qFpy2MdOZ6/wDit6aVqXUFNdc1rbY5ylIQgCAIDr6e09W36fZph2cDTiSdw8lvQcz0UN16VRz59ienHa6ePHuWxYrFRWOmMVHH5bvvJXb3PPX5Kotue2dsXNVK1RpTYu/4TW/yH/tKUfNX6wMj5LfSSrV0py4QbCDYQbMFZMFpXW2Ut0pHU1XHtsO8EcWnmD3FcvXa1TdSnVW1LavSxVGoLFVWOp7OYF8D/u5gNzuh5Hor/HyEuXcefWDnsjGeidT49JOUtg1xlAEB8SMa8AO7uBHcsMsMelaV8Go9ronYcN3cQoJWVJoaGAchkztLIG0hgmelNETXAMrLs18NLjLYeD5R19EfFaORlwnank38fDl+6ziCzaWnhpaeOCnibFEwYaxowAFVzMzO5LZVhY1B7LBk07x+E1v8h/7SpaPmr9YIcj5LfSSq10xywQBAEBgrJguFcmdga1fRQXCmfTVcbZIXjBa4fH1r0jsjdSzyeLK1sWVaNwVVqfTlRY59sZlonnDJccPyu6+KvsbKW6NTwxz+VitRO/K/zycLK2zU2MoNjKDYOHDBGQe5Y1E+Rv2NSWEs3s3t71CyTHgmWyJ4kzRwT1tQynpInzTPOGsYMk/7zXiXVY206JIWWnS8yWlpPQ8FtEdXdNmes4tZxZEenM9f05qryMxn7U4j8ltj4ap3PzP4JkBgrSN4ygCA07z+EVv8h/7SpaPmr9YIcj5LfSSqcrpzlTKAIAgMEoYLiXJnYhAQ3XeqKS2UktvjjiqqyZmy6J/lMjae9w8AtvFod5h/EQaOXkIqynmZ/nJV8E4f5LvO8Veo++JKF06eYPXK9ngZQDKAZQEh0bf6exVEjamlY6KcjanY36xnzb08VpZeJN0bWefb0N7Dy4pnTRx9y1aSpgq6dk9NMyWJ4y17DkFUbLKz0zHJfo6uvUs7g915PQQBAad5/CK3+nf+0qbH+av1ghyPkt9JKoBXTHKDKyBlAMoDBKAuMnAXJHYkJ1trRls26C2Oa+txiSQb2wfN3gt7GxJs7n8GhlZkV9iefwVZLI+Z7pJXufI87TnOOS48yrXURGoKfc+ZPI7jkEg800Z2bMFRteTJja581Kj74kidNcwe+VIRDKAZQDKA6tg1BW2OfapnbULj9ZA8+S75Hqte/GS+OfPubGPkvRO18exalgv1Fe6btaR+JGgdpC7zmH5dVQ3470Tpv8nQ4+Sl8bXz7HWUJOEBp3r8Irv6d/7Spsf5y/WCHI+S30kqYLpzkzKzoBNAJoGCgJFrjWxpnS2uzyfXtJbPUD/j/K3r17vCixcPq738ehf5eZ0/9aefWStCSTnJJPE81aaKkZQBNGTMFPLUzsgponyzSHDGMGS4rw2ljc8HpYlp1EEzqNC3ajszKtzmz1A3y08YyWN6H+I8/hlQ1fEK2fon+0k9vw6xU615n1gjGcjI4KxK3YygGUAygPakq56OoZUUkropmHLXt4heHRXjpaNwekdkbqWdSWZpXWcF07OkuBbBWnc0/wAEvq5Hp+ipMrBaruTmPwXuL8QW3tfhvtJLshaBZGnefweu/p3/ALSpsf5y/WCHI+S30kqZdRBycDKAZQDKAwUMHCvFFU266VNLWtImY85cR54J3O9/FadTq6RKm7ajI8w3n+cmnlSHgZQHUsFir79V9hQx+Q3HazO3MjHXr04qK29Ko2xNTQ9zaUt/TOmKHT8BFO3tKl4+tqHjyndByHRUt+Q908+PYu6MZKY48+53MKA2CDaz0YKnbuFoYBUHfLAOEnUcj071Z4md06SyePf2KrNwOvdlXn1j3K3ILSQ4EEHBBG8FXRRmFnRgJoBNAwcHiEBNdLa5lotikvDnS0w3Nn4vjHX0h8fWqzK+Hw3dV59i1xPiMp228x7k+uU8VTYauWCRskb6Z5a5pyCNkqrpWVvWJ87j8ltc0NQzR41JVA4LpzkhlDIygGUAysgsvU+mqTUNJ2c47OoYD2M4G9h/uOi5ei9qZ3Hg6u/HW6NT5KZvNnrrLWupa6BzHDzXgZa8cwVd12pZG1korKXqbpaCQaR0RV3ksqq8PpaDiMjD5fUO4df0WtkZi19q8ybONhtZ3NxBbNuoKW3UjKWigZDCzzWNHxPM9VUM7PPU08lyiKi9KxqDaXk9hAOKAh+stHsuofXW5ojrgMubwbN6+R6qww82aux/0/grc3Bi3vT9X5KtljkhldFMxzJWHZcxwwQVerMNG48FBMSs6byfGVkwMoBlACUkHRst9rrYJKWCXapqkFkkL97fKGMjkVr2UJY0NPmPU2Ksh61lY8T6G2tk1QgCAIAgLpXIHaHy5jXecAfWEMa2ZAwhkygCAIAgCAi+r9JwXyEzwbMVe0Ya87g/k13z7luYmW1E9M8r7GjmYS3x1RwxU1XTT0VTJTVcbopozhzHcR/jr3roEdbF6lncHOOjI0q3EnivZ5CAE7kBiE/aYvbHivB79DvE71IRBDIQBAYKGC61x52oQBAEAQBAEAQBAcDVOmaa/wBOdoCKrYPqpwN/qPMLZxspqG949jUysRL19p9yn7nb6q11j6StiMcrT7nDuIPeF0VVq2r1Ic1bS9TdLxyaqkIweCAxCftEXtjxXmfJ79DvE71IRjKAZQDKA3qC1VdwhdLTR7TGu2SeuAf7qC3ISqdMbFOM9y9SlvLlTrQgCAIAgCAIAgCAIDkaisFHfaPsaluzI37uZo8ph+XRT4+Q9DbU18jHS9dMU3e7RWWWudS1zMHix482QcwV0dF6XJ1KczfjvQ/Sxz87lMQGIT9pi9seK8ep79DvZ3qQjGUBkZLg0Akk4AHErEzrmR+xIrTpC4V2zJVD6JCfTGXn1N7veq+/4jVXwvM/YsqPht1nL9sfcsC2UMFto46WlbiNnPi48z1VHba1ry7+S/ppSlIRPEG2oyUIAgCAIAgCAIAgCAIDnXuz0l6onUtbHtNO9rhucw8wVLTc9L9SSQ3UJcvS8FN6l0/V2Cr7GoG3E/PZTjzZB/Y9F0WPkpeu4OaycV8dtTzBxoN9VFj0gp/MkHoSFrXPkaxjS57jhrWjJJ6L3MxEbnwRxG56Y8kmtOi66r2ZK4iki9E4c8+7gPf+irb/AIlWnFfM/b+fzZaUfC7X5s7Y+/8AomdqsVBa2j6LAO0xvlf5Tz7+73Knuyrbp75LmjEqojsj/wBOooDZCAIAgCAIAgCAIAgCAIAgCA1Ljb6W50j6WuhEsL+LT4g9xXquxq2hknUniytbF6XjcEFGibXT3Xson1IaT6bcj4K4XOs/+fVqNlO3w6qbNbnX8/Ymtrs1BambNFTtYSMF53ud6yVV3ZFl098lnRjVURpIN8BQmwZQBAEB/9k=;labelPosition=center;align=center;fontSize=24;" parent="1" vertex="1">
          <mxGeometry x="503" y="587.25" width="93.75" height="93.75" as="geometry" />
        </mxCell>
        <mxCell id="7XWcPO5MOVNVLiWFEyp1-8" value="" style="endArrow=classic;startArrow=classic;html=1;rounded=0;" parent="1" source="7XWcPO5MOVNVLiWFEyp1-7" target="7XWcPO5MOVNVLiWFEyp1-4" edge="1">
          <mxGeometry width="50" height="50" relative="1" as="geometry">
            <mxPoint x="280" y="620" as="sourcePoint" />
            <mxPoint x="330" y="570" as="targetPoint" />
          </mxGeometry>
        </mxCell>
        <mxCell id="7XWcPO5MOVNVLiWFEyp1-9" value="" style="endArrow=classic;startArrow=classic;html=1;rounded=0;" parent="1" edge="1">
          <mxGeometry width="50" height="50" relative="1" as="geometry">
            <mxPoint x="310" y="650" as="sourcePoint" />
            <mxPoint x="490" y="650" as="targetPoint" />
          </mxGeometry>
        </mxCell>
        <mxCell id="7XWcPO5MOVNVLiWFEyp1-6" value="GitHub" style="shape=image;verticalLabelPosition=top;labelBackgroundColor=default;verticalAlign=bottom;aspect=fixed;imageAspect=0;image=data:image/png,iVBORw0KGgoAAAANSUhEUgAAALsAAACUCAMAAAD8tKi7AAAAb1BMVEX///8XFRUAAAAUEhL6+vr29vYPDAwJBgbz8/Po6OgSDw/i4uLv7++lpKTIyMiAgICFhobX19eUk5NUU1PBwcG6ublsbGyysbFAPz+MjIzOzs5lZGRNTU01NDRGRUWdnJwlJCQdHR15eHguLS1dXFyQxUOxAAAI2klEQVR4nO1d65qCOAwdUmylXBQVQRFE8f2fccHLyKWBUlrd/XbOzxmnHEuapCdp5+fnD3/4w/8U9sJzHDeIYr9GHAWu43hL+9u0RuGEQXzY59BFsj/Eu9D5134B7+hv0uxOlVhtkPtPs/TgH71v0+zDjta3mjfr0m58AVbzv62ixbfJthBeSwuAorTfoABWuT9+m/ATtuuXAByf7978c4Bi437f9pfHQ2Uo0rxfqMxnfVx+lbkdXS/AJzO/zz5Y1+iLcx+khZSRi8Hhku6+xNzZW4pz/mZPbu43mJ/7bnw6Kse/cT5NPTjNnPMXOCS7j5q9s2GghXkNgMMHDee41TTpD3DYfixY+UyDpbcAbPMR5stUN3OrXrPpByJVeNJn6U1AYtxugtwM9Zp8ZJZ6VJqiXpEvYpPUfYW0Sx4UzsaY276BVdoEgbOhMGX7RKdXF5KnZsjbcameM8qCFr4J8ruLSVv/JW8ZWLDhjEx9EnkIdFN3PkS9zm40Z2aOoWgqAiRayS9Xn6Nekb/qFKBi2vOOtVA0pCTJgDwG6f/Y10ddsE5pdvY3acLkFCUReMW6Vvn8vDcCB215mZf0LQYerszx94nKvrWa8Sw9P+z62P97KHVtYgXGzq1fUTHcbGHqagA4bd5TW/QDB+z1UA8E8wq3xgfceNoekEDuN13JVfDVQUtCvNwK4im0V5MXtwyHENpS3ykh798SAL9tEZGAOzvpsJqDyCB68aPyohV7wim7e58yv+2v68PmsF7tb6fy4VFYLbgC7Lse0BY+YT2f+jERpTHQz5iOacWu5uzvehqv7e78a3oqq2+w7ct4tiXwVbScnRsshFGJZYJsb7G5nndDIdEJ/NVBEHbsVDjx17m776MwZ4dUmKmOFzRs4d+tRdz57KRsL3R/cJ05bBtn8UNu4385hKPYc+tYSA34yFPmKdxI+vgh7tmcQUMkYGrmLraZ6jFzLF5s7drtXRhC6sek6mOGGZIkwlbrjliUFNSgWag8JjYfVVzXyd3OsOeo26YjjBmPQXXubBb4Y7aq278I15JApxKBOOL6/TLFdNJGTaaeEI3cMXOvn7NWaz5wB+RqSDRyx02zSpzUjAZ/lRZctPqZAQFFzcUPmAwt1H2XCK5gQ/zivlKZpQXquQho1CDuiC6YV2CFSibsott/uOkuRdu4dgUqrxhJkKppv+gvDKERvLszlsMNDXYzsgwU6MRDrjAaZjJEv8hcwbEQiyegMBg6ETpd+xtYytqXJMYhEk0eY+l2Mg+g0UQh/UC9O5gpntuYtKaQS6LbjpMB4jWw1TrdNdgnpDJmrH6LGSk7TY2sXl8Vf3I31Z4WIo6NJlMjYZiJzY8zvanMG24pftM8m1pICEoxd1aa6o/CynG8nPqm44v4DYIWbVkED/EOZHK1+EwR7qmpJnC0lsimeocN5rF66rkuLISKav3Iw8SR0IG+wH1qcEIHMmYzH+B++w9z35ryM0tM6tDHPTfmIzGpQxt3VcFkHGiriDbu3DLF3c2w7G8qdzx9N9U+6mLq52T/jsUmTcVyAfCN09Q+Zx879DN5JFnECHfCp24yowLjbkLhqIGlM6SY+qaxHFhzyaMBTJPkk4vzLi5UmXE0aPGDTvbKS2zPZ2rDimoqNJ8sTIi6Zh7cVUS2caAFBDa9xILqVISayAoWqIqt0H6FOngzXhLzkEqPC9DB2HQDHAcmBylVbTy8cGjpVySjAi+HKmwY+q2ov6Npr3ss0dVlcaowHj4cYbp71HcEbQ9V6pREHW7d2KJ34p3twLNUcj9voFUW6RdTxUCXN1HqXLCHWt61FhBw/1jrcEqzhHUTPaZDXxofDDXkKmYgAzX5WlPVpWUH2F7vwV1tmza0giryFz3kA0S6flJXlVSGjKY+eODPv5xiMXLKTjlpDYYPYxFYzU3l3dVw87l6U/BAtHvOSh7PSW2W8diBUtgrj++3RHjWv54FrJu6v4m21gh1QtVdsZs0jIbl52Nw3rYPpxBgakdm7SgZP/VN55x0aqhj7PQIcMtz0pn7+loQZ8qyXTjBVeoCklntr86bJs9ePtG9svYa5gDZOg5CmejthUG8qu98GWdevdRZaVNjtULyWvP2+dJ1QNVasE77wzmO8BJmGMXn9T6n0ne+zDxs02xegux39yU6hcvrtUwobqHuhd8PfcgRr6d9pgtupngUfkvMiNTKB9OcYNoZNFjNo/7jFs3nQflKL8RdTbAZzPqGA3UHtJgb+exzy6tA/rRnt2fyFVgyXLAPc/mjxzrOnbvtjAy2T28iaoUb9WkDXbq9sZTbmBvoqNkvKxSUtkgxlloeMYW2P+2TlWshOqb9alh0eyZP89EIhcsw3WmfecjmCaftEKF8/jy8dYK6xPNkzx9zomk333EPv81nVQbb/A2VUN+GtqatZ+gSm+19Z7m+HMCiSmIfQfJ+1lAinccO7nSp77XpEGGrrZk3lqSz2xf31Li8Rq5EPraU4g4zzqj0ENFWhGoHPM9xHNktgvC4ZxeUaq0ltiIULZS7am2Js91Ec2Wl3VSkvhWT4Q4rzRr5slWGU94USHCHRLu871wa5MnkOvkT49zhYqAk5JIW+auSFxvlDsRICfTY8pSQ7BTe7Rh3mNzIKYldS34Dfo0mv94R7vpUzh6OrZ1mtYO7rf3A9ewfe+mGkS9xnGeYOzPW4PJTh/RWbCHVBrVM8tPplCdZQSU6DQa5g9KZGmm4WefhhFPKGKOUEz6POwFj7Vwv8vhNgDIdHjh3AqnxWySdA6YLzeLO4fCBu0dRyVyOu5i6FjFfBsdCOHsy3MVdMgSKj13c6V2FU6/Knem9HGoM1Yapb/Vq3DnkRu9e7CNc9YV/GDfZPnewVka9ugj2rndRkQJ3DtvP3g78xDLuyOiTuVdZxayC1SxsCsaUuTNWfOZmXQRefUEXV+BeTfl28+3/feD4KXuwZ5bExy32YE5T/+N3eAvgBOtH+VLG1cX3T7J18G9gXsP2om0muMBKhF31ycj7/j87+MMf/vAx/AMxs3D/IpnPvwAAAABJRU5ErkJggg==;labelPosition=center;align=center;fontSize=24;" parent="1" vertex="1">
          <mxGeometry x="361.5" y="110" width="127" height="100.51" as="geometry" />
        </mxCell>
        <mxCell id="7XWcPO5MOVNVLiWFEyp1-10" value="" style="endArrow=classic;html=1;rounded=0;entryX=0.25;entryY=0;entryDx=0;entryDy=0;exitX=0.25;exitY=1;exitDx=0;exitDy=0;" parent="1" source="7XWcPO5MOVNVLiWFEyp1-6" target="7XWcPO5MOVNVLiWFEyp1-4" edge="1">
          <mxGeometry width="50" height="50" relative="1" as="geometry">
            <mxPoint x="335.5" y="160.2550000000001" as="sourcePoint" />
            <mxPoint x="304" y="455" as="targetPoint" />
          </mxGeometry>
        </mxCell>
        <mxCell id="7XWcPO5MOVNVLiWFEyp1-11" value="Text" style="edgeLabel;html=1;align=center;verticalAlign=middle;resizable=0;points=[];" parent="7XWcPO5MOVNVLiWFEyp1-10" vertex="1" connectable="0">
          <mxGeometry x="0.0346" relative="1" as="geometry">
            <mxPoint as="offset" />
          </mxGeometry>
        </mxCell>
        <mxCell id="7XWcPO5MOVNVLiWFEyp1-12" value="Pull" style="edgeLabel;html=1;align=center;verticalAlign=middle;resizable=0;points=[];" parent="7XWcPO5MOVNVLiWFEyp1-10" vertex="1" connectable="0">
          <mxGeometry x="0.0172" relative="1" as="geometry">
            <mxPoint x="-1" as="offset" />
          </mxGeometry>
        </mxCell>
        <mxCell id="7XWcPO5MOVNVLiWFEyp1-23" value="&lt;font style=&quot;font-size: 24px;&quot;&gt;Pull&lt;/font&gt;" style="edgeLabel;html=1;align=center;verticalAlign=middle;resizable=0;points=[];" parent="7XWcPO5MOVNVLiWFEyp1-10" vertex="1" connectable="0">
          <mxGeometry x="0.0275" y="5" relative="1" as="geometry">
            <mxPoint x="-3" y="-3" as="offset" />
          </mxGeometry>
        </mxCell>
        <mxCell id="7XWcPO5MOVNVLiWFEyp1-14" value="" style="endArrow=classic;html=1;rounded=0;entryX=0.75;entryY=1;entryDx=0;entryDy=0;exitX=0.825;exitY=0.002;exitDx=0;exitDy=0;exitPerimeter=0;" parent="1" source="7XWcPO5MOVNVLiWFEyp1-4" target="7XWcPO5MOVNVLiWFEyp1-6" edge="1">
          <mxGeometry width="50" height="50" relative="1" as="geometry">
            <mxPoint x="280" y="410" as="sourcePoint" />
            <mxPoint x="330" y="360" as="targetPoint" />
          </mxGeometry>
        </mxCell>
        <mxCell id="7XWcPO5MOVNVLiWFEyp1-24" value="Push" style="edgeLabel;html=1;align=center;verticalAlign=middle;resizable=0;points=[];fontSize=24;" parent="7XWcPO5MOVNVLiWFEyp1-14" vertex="1" connectable="0">
          <mxGeometry x="0.0487" y="-1" relative="1" as="geometry">
            <mxPoint x="2" y="4" as="offset" />
          </mxGeometry>
        </mxCell>
      </root>
    </mxGraphModel>
  </diagram>
</mxfile>
